<?xml version="1.0" standalone="no"?>
<!DOCTYPE svg PUBLIC "-//W3C//DTD SVG 20010904//EN"
 "http://www.w3.org/TR/2001/REC-SVG-20010904/DTD/svg10.dtd">
<svg version="1.0" xmlns="http://www.w3.org/2000/svg"
 width="58.000000pt" height="62.000000pt" viewBox="0 0 58.000000 62.000000"
 preserveAspectRatio="xMidYMid meet">
<metadata>
Created by potrace 1.11, written by Peter Selinger 2001-2013
</metadata>
<g transform="translate(0.000000,62.000000) scale(0.100000,-0.100000)"
fill="#000000" stroke="none">
<path d="M493 605 c-3 -9 0 -80 6 -158 6 -81 8 -166 3 -197 -6 -43 -8 -24 -9
90 0 83 -6 157 -12 174 -11 28 -12 28 -31 11 -15 -13 -20 -32 -21 -69 l0 -51
-25 55 c-41 89 -104 140 -174 140 -55 0 -47 -18 55 -135 60 -69 129 -165 155
-215 20 -38 4 -20 -39 47 -75 116 -139 173 -196 173 -19 0 -25 -5 -25 -22 0
-31 30 -64 135 -148 50 -40 95 -77 100 -83 17 -18 -46 24 -114 75 -67 52 -94
57 -99 20 -5 -34 22 -68 76 -97 l47 -25 -37 6 c-43 7 -50 -6 -16 -30 21 -15
15 -16 -82 -10 -114 6 -143 -2 -124 -33 6 -11 34 -23 65 -30 33 -7 43 -11 27
-12 -46 -2 -125 -22 -144 -36 -17 -13 -17 -16 -4 -25 41 -27 220 2 342 57 48
21 57 28 42 34 -16 7 -16 8 6 9 l25 2 -25 8 c-25 8 -24 8 8 15 22 5 31 12 28
21 -3 9 2 14 13 14 10 0 21 3 25 8 4 4 13 7 19 7 27 0 95 305 82 365 -10 47
-68 79 -82 45z m-25 -410 c-3 -3 -9 2 -12 12 -6 14 -5 15 5 6 7 -7 10 -15 7
-18z m-111 -11 c-3 -3 -12 -4 -19 -1 -8 3 -5 6 6 6 11 1 17 -2 13 -5z m46 -11
c-7 -2 -19 -2 -25 0 -7 3 -2 5 12 5 14 0 19 -2 13 -5z m-66 -29 c-3 -3 -12 -4
-19 -1 -8 3 -5 6 6 6 11 1 17 -2 13 -5z m26 -41 c-7 -2 -19 -2 -25 0 -7 3 -2
5 12 5 14 0 19 -2 13 -5z"/>
<path d="M473 151 c-55 -44 -141 -131 -130 -131 17 0 168 103 187 127 44 56
11 58 -57 4z"/>
</g>
</svg>
