<?xml version="1.0" encoding="utf-8"?>
<!-- Generator: Adobe Illustrator 18.1.0, SVG Export Plug-In . SVG Version: 6.00 Build 0)  -->
<svg version="1.1" id="Layer_1" xmlns="http://www.w3.org/2000/svg" xmlns:xlink="http://www.w3.org/1999/xlink" x="0px" y="0px"
	 viewBox="0 0 208.8 239.1" enable-background="new 0 0 208.8 239.1" xml:space="preserve">
<g opacity="0.6">
	<g>
		<path fill="none" stroke="#000000" stroke-miterlimit="10" d="M181.3,14.1h-11.1l-3.4,2.9h-9.6l-4.8,1.9h-7.7l-16.3,4.8
			l-17.8,12.5v26.5l9.1,1.9l4.2-0.8l-4.2,6.1l3.8,12l-4.8,0.5l-5.3,3.9v4.3l-6.3-0.5l-8.2,9.1l-0.5,4.3l-5.8-2.4l4.8-6.3l-0.5-7.7
			L93.8,81l3.4-2.4l2.9,2.4l9.1-6.7l-5.3-4.3l-3.8,1l-0.5-7.7L93.3,55l-4.8,3.9l-9.6-6.7L76,76.2l-7.7,28.4l-1.9,5.8l-11.5,10.1
			l-4.8,10.1h-6.7l1.9,11.6l-4.8-1.4l-3.4,2.9l9.1,3.4l-0.2,4l5.4,2.5l1.3,2.4l-3.2,0.7l-5.1-3.9l-6.5-4.6l-7.2,0.5l-3.9,3.3
			l1.6,3.7l5.8-1.4l3.5,3.5l6.5,2.3l-2.8,2.1l3.9,2.3l7.2,3.3l4.2,2.8l-2.6,3l-5.3-0.2l-2.1-4.6l-4.6-3l-4.4-1.9l-0.2-3l-6.5-0.5
			l-13,1.2l-1.9,5.1l3.2,4.4l4.2,2.3l3.9-0.9l7.2,5.6l7.4-5.8l0.9,3l-3.9,3.7l-4.4,2.1l-5.1-3.9l-5.3-1.4l-9.5-0.2l-4.4,6.5l3.5,6
			l5.8,0.2l3.5-3.7l4.2,1.2l7,5.8l7-0.7l7.7-4.4l5.3-7.4l5.1,1.2l6-1.4l-0.7-6.3l4.4-1.9l1.9,4.2l5.8,0.2l5.3-5.6l0.9,3.5l-0.2,4.2
			l7.2-0.2l3.7-3.5l1.2-2.8l1.2,4.2l-0.7,4.2l3.7,2.8l4.9,6.5h8.4l5.6-2.6l0.7,3.3l8.1,4.6l7.4,2.8l-5.8,11.2l0.2,5.6l-5.3,5.6
			l1.6,7.7l7.7,0.7l9.1,2.3l1.2-5.3l2.3-5.1v-6.3l-2.6-3.7l-6.5-2.1l0.9-3l4.4-0.9l8.6-6.3v-4.6h-4.4l3.7-6.3l3.5-9.3l-2.8-12.5
			l-2.8-8.8l-4.2-2.8l-3.5-7.9c0,0,2.8-2.8,3.5-2.8c0.7,0,6.7-0.2,6.7-0.2l1.4-1.9l6.7,3.3h5.1c0,0,4.6-3.7,5.6-3.7
			c0.9,0,6-1.2,6-1.2l3.9,0.2l4.2-7.9l-2.6-2.8l-5.1-3.3l4.9-1.9l4.6-5.6l6.7-5.3l0.7-5.3l1.6-6.3l-3-4.4l-1.9-3l-4.4,1.6l-3.9-1.6
			l-6.5-3.5l3.7-2.6l-2.1-3.9c0,0,1.9-3,2.6-3c0.7,0,5.8-0.7,5.8-0.7l4.6,0.9l4.2-1.6l-0.2-14.4l5.8-11.2l0.5-20l-6-1.9l-0.7-3.3
			l-6-2.1l-3.7-5.6L181.3,14.1z"/>
	</g>
	<g>
		<g>
			<defs>
				<path id="SVGID_201_" d="M145.8,12.8l4.4-2.1l4.9-0.7l0.5,2.8l-3,2.3l-7.4,0.2L145.8,12.8z M141.3,11.9l-7.2,0.9l-10.2,0.2
					l-0.7,2.1l3.9,3l3.9-1.6l3.9,1.2L141.3,11.9z M103.8,18.6l-3.7,3.9l4.4,0.7l11.1-3l4.9-3.9l-5.3-0.9l-4.9,2.6L103.8,18.6z
					 M100.9,25.4h-6.3l-7.4,6.3l2.1,2.6l5.3-1.4l1.6-3.5L100.9,25.4z M85.3,35.3l-4.4,6.5l-1.4,6.5l3.2,3.5l6.5-6l-1.4-10.2
					L85.3,35.3z"/>
			</defs>
			<clipPath id="SVGID_2_">
				<use xlink:href="#SVGID_201_"  overflow="visible"/>
			</clipPath>
			<path clip-path="url(#SVGID_2_)" fill="none" stroke="#000000" stroke-miterlimit="10" d="M49.5,156.6l-1.6,2.3l-3.7,0.9
				L49.5,156.6z M43,174.9l5.3,3l5.8,0.7L43,174.9z M45.3,142.2l20.7,9.3l2.3,2.6c0,0-5.8-0.5-6.5-0.2c-0.7,0.2-3.9,3.5-3.9,3.5
				l-5.1-1.4L45.3,142.2z M50.1,130.6l8.3,7.2l8.1-0.2L50.1,130.6z M145.8,12.8l4.4-2.1l4.9-0.7l0.5,2.8l-3,2.3l-7.4,0.2L145.8,12.8
				z M103.8,18.6l-3.7,3.9l4.4,0.7l11.1-3l4.9-3.9l-5.3-0.9l-4.9,2.6L103.8,18.6z M85.3,35.3l-4.4,6.5l-1.4,6.5l3.2,3.5l6.5-6
				l-1.4-10.2L85.3,35.3z"/>
			
				<use xlink:href="#SVGID_201_"  overflow="visible" fill-rule="evenodd" clip-rule="evenodd" fill="none" stroke="#000000" stroke-miterlimit="10"/>
		</g>
	</g>
</g>
</svg>
