<?xml version="1.0" encoding="utf-8"?>
<!-- Generator: Adobe Illustrator 18.1.0, SVG Export Plug-In . SVG Version: 6.00 Build 0)  -->
<svg version="1.1" id="Layer_1" xmlns="http://www.w3.org/2000/svg" xmlns:xlink="http://www.w3.org/1999/xlink" x="0px" y="0px"
	 viewBox="0 0 50 50" enable-background="new 0 0 50 50" xml:space="preserve">
<g>
	<g>
		<path d="M17.8,23.5c-1.8,0-3.3-1.5-3.3-3.3s1.5-3.3,3.3-3.3s3.3,1.5,3.3,3.3S19.6,23.5,17.8,23.5z M17.8,17.9
			c-1.2,0-2.3,1-2.3,2.3s1,2.3,2.3,2.3s2.3-1,2.3-2.3S19.1,17.9,17.8,17.9z"/>
	</g>
	<g>
		<path d="M30.2,11.9c-1.8,0-3.3-1.5-3.3-3.3s1.5-3.3,3.3-3.3s3.3,1.5,3.3,3.3S32,11.9,30.2,11.9z M30.2,6.2c-1.2,0-2.3,1-2.3,2.3
			s1,2.3,2.3,2.3s2.3-1,2.3-2.3S31.4,6.2,30.2,6.2z"/>
	</g>
	<g>
		<path d="M19.8,39.3c-1.8,0-3.3-1.5-3.3-3.3s1.5-3.3,3.3-3.3s3.3,1.5,3.3,3.3S21.6,39.3,19.8,39.3z M19.8,33.7
			c-1.2,0-2.3,1-2.3,2.3s1,2.3,2.3,2.3s2.3-1,2.3-2.3S21,33.7,19.8,33.7z"/>
	</g>
	<g>
		<path d="M31.9,44.8c-1.8,0-3.3-1.5-3.3-3.3s1.5-3.3,3.3-3.3c1.8,0,3.3,1.5,3.3,3.3S33.7,44.8,31.9,44.8z M31.9,39.1
			c-1.2,0-2.3,1-2.3,2.3s1,2.3,2.3,2.3c1.2,0,2.3-1,2.3-2.3S33.2,39.1,31.9,39.1z"/>
	</g>
	<path d="M23.8,38.3l3.7,1.7c0.1-0.3,0.2-0.6,0.4-0.9l-3.7-1.7C24.1,37.7,24,38,23.8,38.3z"/>
	<path d="M17.9,24.8l0.8,6.7c0.3-0.1,0.7-0.1,1-0.1l-0.8-6.7C18.6,24.8,18.3,24.8,17.9,24.8z"/>
	<path d="M26.5,11.4l-5.7,5.3c0.3,0.2,0.5,0.5,0.7,0.7l5.7-5.3C26.9,11.9,26.7,11.6,26.5,11.4z"/>
</g>
</svg>
