<?xml version="1.0" encoding="utf-8"?>
<!-- Generator: Adobe Illustrator 18.1.0, SVG Export Plug-In . SVG Version: 6.00 Build 0)  -->
<svg version="1.1" id="Layer_1" xmlns="http://www.w3.org/2000/svg" xmlns:xlink="http://www.w3.org/1999/xlink" x="0px" y="0px"
	 viewBox="0 0 50 50" enable-background="new 0 0 50 50" xml:space="preserve">
<g>
	<g>
		<path d="M34.8,21.2c-1.4,1.1-3.5,0.9-4.6-0.5c-1.2-1.4-1-3.5,0.4-4.6c1.4-1.1,3.5-0.9,4.6,0.5S36.2,20,34.8,21.2z M31.2,16.8
			c-1,0.8-1.1,2.2-0.2,3.2c0.8,1,2.3,1.1,3.2,0.4s1.1-2.2,0.2-3.2S32.1,16.1,31.2,16.8z"/>
	</g>
	<g>
		<path d="M19.5,33.9c-1.4,1.1-3.5,0.9-4.6-0.5s-1-3.5,0.4-4.6c1.4-1.1,3.5-0.9,4.6,0.5C21,30.7,20.9,32.8,19.5,33.9z M15.9,29.6
			c-1,0.8-1.1,2.2-0.2,3.2c0.8,1,2.3,1.1,3.2,0.4c1-0.8,1.1-2.2,0.2-3.2C18.3,28.9,16.8,28.8,15.9,29.6z"/>
	</g>
	<g>
		<path d="M15.7,26.8c-0.6-3.3,0.5-6.8,3.2-9.1c2.7-2.3,6.4-2.7,9.5-1.5c0.2-0.3,0.4-0.6,0.6-0.8c-3.5-1.5-7.7-1-10.8,1.6
			s-4.3,6.6-3.5,10.3C15.1,27.1,15.4,26.9,15.7,26.8z"/>
		<path d="M31,32.3c-2.7,2.3-6.4,2.7-9.5,1.5c-0.2,0.3-0.4,0.6-0.6,0.8c3.5,1.5,7.7,1,10.8-1.6s4.3-6.6,3.5-10.3
			c-0.3,0.2-0.6,0.3-0.9,0.4C34.9,26.4,33.8,30,31,32.3z"/>
	</g>
</g>
</svg>
