<?xml version="1.0" encoding="utf-8"?>
<!-- Generator: Adobe Illustrator 18.1.0, SVG Export Plug-In . SVG Version: 6.00 Build 0)  -->
<svg version="1.1" id="Layer_1" xmlns="http://www.w3.org/2000/svg" xmlns:xlink="http://www.w3.org/1999/xlink" x="0px" y="0px"
	 viewBox="0 0 50 50" enable-background="new 0 0 50 50" xml:space="preserve">
<g>
	<path d="M32.4,11.3c-1.8,0-3.3-1.5-3.3-3.3c0-1.8,1.5-3.3,3.3-3.3c1.8,0,3.3,1.5,3.3,3.3C35.7,9.8,34.2,11.3,32.4,11.3z M32.4,5.7
		c-1.2,0-2.3,1-2.3,2.3s1,2.3,2.3,2.3c1.2,0,2.3-1,2.3-2.3S33.7,5.7,32.4,5.7z"/>
	<path d="M17.6,45.3c-1.8,0-3.3-1.5-3.3-3.3c0-1.8,1.5-3.3,3.3-3.3s3.3,1.5,3.3,3.3C20.8,43.8,19.4,45.3,17.6,45.3z M17.6,39.7
		c-1.2,0-2.3,1-2.3,2.3s1,2.3,2.3,2.3s2.3-1,2.3-2.3S18.8,39.7,17.6,39.7z"/>
	<path d="M30,12.1c-0.3-0.2-0.6-0.4-0.8-0.6l-9.7,12.9h9.1l-8.7,13.3c0.3,0.2,0.6,0.3,0.8,0.6l9.8-14.8h-8.9L30,12.1z"/>
	<path d="M32.4,8"/>
</g>
</svg>
