<?xml version="1.0" encoding="utf-8"?>
<!-- Generator: Adobe Illustrator 18.1.0, SVG Export Plug-In . SVG Version: 6.00 Build 0)  -->
<svg version="1.1" id="Layer_1" xmlns="http://www.w3.org/2000/svg" xmlns:xlink="http://www.w3.org/1999/xlink" x="0px" y="0px"
	 viewBox="0 0 50 50" enable-background="new 0 0 50 50" xml:space="preserve">
<g>
	<path d="M25,18.4c-1.8,0-3.3-1.5-3.3-3.3c0-1.8,1.5-3.3,3.3-3.3s3.3,1.5,3.3,3.3C28.3,16.9,26.8,18.4,25,18.4z M25,12.8
		c-1.2,0-2.3,1-2.3,2.3s1,2.3,2.3,2.3s2.3-1,2.3-2.3S26.3,12.8,25,12.8z"/>
	<g>
		<path d="M35.5,38.2c-1.8,0-3.3-1.5-3.3-3.3c0-1.8,1.5-3.3,3.3-3.3s3.3,1.5,3.3,3.3C38.8,36.7,37.3,38.2,35.5,38.2z M35.5,32.6
			c-1.2,0-2.3,1-2.3,2.3s1,2.3,2.3,2.3s2.3-1,2.3-2.3S36.8,32.6,35.5,32.6z"/>
	</g>
	<g>
		<path d="M14.5,38.2c-1.8,0-3.3-1.5-3.3-3.3c0-1.8,1.5-3.3,3.3-3.3s3.3,1.5,3.3,3.3C17.7,36.7,16.3,38.2,14.5,38.2z M14.5,32.6
			c-1.2,0-2.3,1-2.3,2.3s1,2.3,2.3,2.3s2.3-1,2.3-2.3S15.7,32.6,14.5,32.6z"/>
	</g>
	<path d="M17.2,30.9l6-11.3c-0.3-0.1-0.6-0.3-0.9-0.5l-6,11.3C16.6,30.6,16.9,30.7,17.2,30.9z"/>
	<path d="M33.7,30.4l-6-11.3c-0.3,0.2-0.6,0.3-0.9,0.5l6,11.3C33.1,30.7,33.4,30.6,33.7,30.4z"/>
	<path d="M30.8,34.4H19.3c0,0.2,0.1,0.3,0.1,0.5s0,0.3-0.1,0.5h11.5c0-0.2-0.1-0.3-0.1-0.5S30.7,34.6,30.8,34.4z"/>
</g>
</svg>
