<?xml version="1.0" encoding="utf-8"?>
<!-- Generator: Adobe Illustrator 18.1.0, SVG Export Plug-In . SVG Version: 6.00 Build 0)  -->
<svg version="1.1" id="Layer_1" xmlns="http://www.w3.org/2000/svg" xmlns:xlink="http://www.w3.org/1999/xlink" x="0px" y="0px"
	 viewBox="0 0 50 50" enable-background="new 0 0 50 50" xml:space="preserve">
<g>
	<path d="M37.5,33.7c-1.8,0-3.3-1.5-3.3-3.3c0-1.8,1.5-3.3,3.3-3.3s3.3,1.5,3.3,3.3C40.8,32.2,39.3,33.7,37.5,33.7z M37.5,28
		c-1.2,0-2.3,1-2.3,2.3s1,2.3,2.3,2.3s2.3-1,2.3-2.3S38.8,28,37.5,28z"/>
	<path d="M12.5,33.7c-1.8,0-3.3-1.5-3.3-3.3c0-1.8,1.5-3.3,3.3-3.3s3.3,1.5,3.3,3.3C15.7,32.2,14.3,33.7,12.5,33.7z M12.5,28
		c-1.2,0-2.3,1-2.3,2.3s1,2.3,2.3,2.3s2.3-1,2.3-2.3S13.7,28,12.5,28z"/>
	<g>
		<path d="M13.5,25.7c1.6-4.8,6.1-8.4,11.4-8.4c5.4,0,9.9,3.5,11.5,8.4c0.3-0.1,0.7-0.1,1-0.1c-1.6-5.4-6.6-9.3-12.5-9.3
			c-5.9,0-10.8,3.9-12.5,9.2C12.9,25.5,13.2,25.6,13.5,25.7z"/>
	</g>
</g>
</svg>
