<?xml version="1.0" encoding="utf-8"?>
<!-- Generator: Adobe Illustrator 18.1.0, SVG Export Plug-In . SVG Version: 6.00 Build 0)  -->
<svg version="1.1" id="Layer_1" xmlns="http://www.w3.org/2000/svg" xmlns:xlink="http://www.w3.org/1999/xlink" x="0px" y="0px"
	 viewBox="0 0 50 50" enable-background="new 0 0 50 50" xml:space="preserve">
<g>
	<g>
		<path d="M25.1,22.7c-1.8,0-3.3-1.5-3.3-3.3c0-1.8,1.5-3.3,3.3-3.3s3.3,1.5,3.3,3.3C28.4,21.2,26.9,22.7,25.1,22.7z M25.1,17.1
			c-1.2,0-2.3,1-2.3,2.3s1,2.3,2.3,2.3s2.3-1,2.3-2.3S26.3,17.1,25.1,17.1z"/>
	</g>
	<g>
		<path d="M15.4,27.7c-1.5,0-2.8-1.2-2.8-2.8c0-1.5,1.2-2.8,2.8-2.8s2.8,1.2,2.8,2.8C18.2,26.5,17,27.7,15.4,27.7z M15.4,23.1
			c-1,0-1.8,0.8-1.8,1.8c0,1,0.8,1.8,1.8,1.8c1,0,1.8-0.8,1.8-1.8C17.2,23.9,16.4,23.1,15.4,23.1z"/>
	</g>
	<g>
		<path d="M34.8,27.7c-1.5,0-2.8-1.2-2.8-2.8c0-1.5,1.2-2.8,2.8-2.8s2.8,1.2,2.8,2.8C37.6,26.5,36.3,27.7,34.8,27.7z M34.8,23.1
			c-1,0-1.8,0.8-1.8,1.8c0,1,0.8,1.8,1.8,1.8c1,0,1.8-0.8,1.8-1.8C36.6,23.9,35.8,23.1,34.8,23.1z"/>
	</g>
	<g>
		<path d="M25.1,42.2c-1.5,0-2.8-1.2-2.8-2.8c0-1.5,1.2-2.8,2.8-2.8s2.8,1.2,2.8,2.8C27.9,41,26.6,42.2,25.1,42.2z M25.1,37.7
			c-1,0-1.8,0.8-1.8,1.8c0,1,0.8,1.8,1.8,1.8c1,0,1.8-0.8,1.8-1.8C26.9,38.5,26.1,37.7,25.1,37.7z"/>
	</g>
	<path d="M17.1,28.4l5.4,8.2c0.3-0.2,0.5-0.4,0.8-0.6L18,27.8C17.7,28,17.4,28.2,17.1,28.4z"/>
	<g>
		<path d="M32.2,27.8L26.8,36c0.3,0.2,0.6,0.3,0.8,0.6l5.4-8.2C32.8,28.2,32.5,28,32.2,27.8z"/>
		<path d="M35.7,19.4c0,0.6-0.1,1.2-0.2,1.7c0.3,0.1,0.7,0.2,1,0.4c0.1-0.7,0.2-1.4,0.2-2.1c0-6.4-5.2-11.6-11.6-11.6
			c-6.4,0-11.6,5.2-11.6,11.6c0,0.7,0.1,1.4,0.2,2.1c0.3-0.2,0.6-0.3,1-0.4c-0.1-0.6-0.2-1.2-0.2-1.7c0-5.9,4.8-10.6,10.6-10.6
			S35.7,13.5,35.7,19.4z"/>
	</g>
</g>
</svg>
