<?xml version="1.0" encoding="utf-8"?>
<!-- Generator: Adobe Illustrator 18.1.0, SVG Export Plug-In . SVG Version: 6.00 Build 0)  -->
<svg version="1.1" id="Layer_1" xmlns="http://www.w3.org/2000/svg" xmlns:xlink="http://www.w3.org/1999/xlink" x="0px" y="0px"
	 viewBox="0 0 50 50" enable-background="new 0 0 50 50" xml:space="preserve">
<g>
	<g>
		<path d="M25,14c-1.8,0-3.3-1.5-3.3-3.3c0-1.8,1.5-3.3,3.3-3.3s3.3,1.5,3.3,3.3C28.3,12.5,26.8,14,25,14z M25,8.3
			c-1.2,0-2.3,1-2.3,2.3s1,2.3,2.3,2.3s2.3-1,2.3-2.3S26.2,8.3,25,8.3z"/>
	</g>
	<g>
		<path d="M25,42.7c-1.8,0-3.3-1.5-3.3-3.3c0-1.8,1.5-3.3,3.3-3.3s3.3,1.5,3.3,3.3C28.3,41.2,26.8,42.7,25,42.7z M25,37
			c-1.2,0-2.3,1-2.3,2.3s1,2.3,2.3,2.3s2.3-1,2.3-2.3S26.2,37,25,37z"/>
	</g>
	<path d="M25,34.5c0.2,0,0.3,0,0.5,0.1V15.5c-0.2,0-0.3,0.1-0.5,0.1s-0.3,0-0.5-0.1v19.1C24.7,34.5,24.8,34.5,25,34.5z"/>
</g>
</svg>
