<?xml version="1.0" encoding="utf-8"?>
<!-- Generator: Adobe Illustrator 18.1.0, SVG Export Plug-In . SVG Version: 6.00 Build 0)  -->
<svg version="1.1" id="Layer_1" xmlns="http://www.w3.org/2000/svg" xmlns:xlink="http://www.w3.org/1999/xlink" x="0px" y="0px"
	 viewBox="0 0 50 50" enable-background="new 0 0 50 50" xml:space="preserve">
<g>
	<path d="M34.9,32.2c-1.8,0-3.3-1.5-3.3-3.3c0-1.8,1.5-3.3,3.3-3.3s3.3,1.5,3.3,3.3C38.2,30.7,36.7,32.2,34.9,32.2z M34.9,26.5
		c-1.2,0-2.3,1-2.3,2.3s1,2.3,2.3,2.3s2.3-1,2.3-2.3S36.2,26.5,34.9,26.5z"/>
	<path d="M15.1,32.2c-1.8,0-3.3-1.5-3.3-3.3c0-1.8,1.5-3.3,3.3-3.3s3.3,1.5,3.3,3.3C18.3,30.7,16.9,32.2,15.1,32.2z M15.1,26.5
		c-1.2,0-2.3,1-2.3,2.3s1,2.3,2.3,2.3s2.3-1,2.3-2.3S16.3,26.5,15.1,26.5z"/>
	<path d="M38.1,25.2l4.8-6.8L42,17.8l-4.8,6.8C37.6,24.8,37.8,25,38.1,25.2z"/>
	<g>
		<path d="M12.7,24.6L8,17.8l-0.8,0.6l4.8,6.8C12.2,25,12.4,24.8,12.7,24.6z"/>
		<path d="M30.1,28.3H19.9c0,0.2,0.1,0.3,0.1,0.5c0,0.2,0,0.3-0.1,0.5h10.3c0-0.2-0.1-0.3-0.1-0.5C30.1,28.7,30.1,28.5,30.1,28.3z"
			/>
	</g>
</g>
</svg>
