<?xml version="1.0" encoding="utf-8"?>
<!-- Generator: Adobe Illustrator 18.1.0, SVG Export Plug-In . SVG Version: 6.00 Build 0)  -->
<svg version="1.1" id="Layer_1" xmlns="http://www.w3.org/2000/svg" xmlns:xlink="http://www.w3.org/1999/xlink" x="0px" y="0px"
	 viewBox="0 0 50 50" enable-background="new 0 0 50 50" xml:space="preserve">
<g>
	<path d="M41.4,36.4c-1.8,0-3.3-1.5-3.3-3.3c0-1.8,1.5-3.3,3.3-3.3s3.3,1.5,3.3,3.3C44.7,34.9,43.2,36.4,41.4,36.4z M41.4,30.7
		c-1.2,0-2.3,1-2.3,2.3s1,2.3,2.3,2.3s2.3-1,2.3-2.3S42.7,30.7,41.4,30.7z"/>
	<path d="M12.9,15.2c-1.8,0-3.3-1.5-3.3-3.3c0-1.8,1.5-3.3,3.3-3.3s3.3,1.5,3.3,3.3C16.2,13.8,14.7,15.2,12.9,15.2z M12.9,9.6
		c-1.2,0-2.3,1-2.3,2.3s1,2.3,2.3,2.3s2.3-1,2.3-2.3S14.2,9.6,12.9,9.6z"/>
	<path d="M9.2,41.4c-1.8,0-3.3-1.5-3.3-3.3c0-1.8,1.5-3.3,3.3-3.3s3.3,1.5,3.3,3.3C12.5,39.9,11,41.4,9.2,41.4z M9.2,35.8
		c-1.2,0-2.3,1-2.3,2.3s1,2.3,2.3,2.3s2.3-1,2.3-2.3S10.5,35.8,9.2,35.8z"/>
	<g>
		<path d="M22.9,30.2c-2.4,0-4.4-2-4.4-4.4s2-4.4,4.4-4.4s4.4,2,4.4,4.4S25.3,30.2,22.9,30.2z M22.9,22.5c-1.8,0-3.4,1.5-3.4,3.4
			s1.5,3.4,3.4,3.4s3.4-1.5,3.4-3.4S24.8,22.5,22.9,22.5z"/>
	</g>
	<g>
		<path d="M19.8,20.6l-3.6-5.1c-0.3,0.2-0.5,0.4-0.8,0.6l3.6,5.1C19.2,21,19.5,20.8,19.8,20.6z"/>
		<path d="M18,29.6l-5.5,4.9c0.2,0.2,0.5,0.5,0.7,0.7l5.5-4.9C18.4,30.1,18.2,29.9,18,29.6z"/>
		<path d="M28.8,27.7c-0.1,0.3-0.2,0.6-0.4,0.9l8.3,3.2c0.1-0.3,0.2-0.6,0.4-0.9L28.8,27.7z"/>
	</g>
</g>
</svg>
