<?xml version="1.0" encoding="utf-8"?>
<!-- Generator: Adobe Illustrator 18.1.0, SVG Export Plug-In . SVG Version: 6.00 Build 0)  -->
<svg version="1.1" id="Layer_1" xmlns="http://www.w3.org/2000/svg" xmlns:xlink="http://www.w3.org/1999/xlink" x="0px" y="0px"
	 viewBox="0 0 50 50" enable-background="new 0 0 50 50" xml:space="preserve">
<g>
	<g>
		<path d="M17.9,21.6c-1.8,0-3.3-1.5-3.3-3.3c0-1.8,1.5-3.3,3.3-3.3s3.3,1.5,3.3,3.3C21.1,20.1,19.7,21.6,17.9,21.6z M17.9,16
			c-1.2,0-2.3,1-2.3,2.3s1,2.3,2.3,2.3s2.3-1,2.3-2.3S19.1,16,17.9,16z"/>
	</g>
	<g>
		<path d="M17.9,35c-1.8,0-3.3-1.5-3.3-3.3c0-1.8,1.5-3.3,3.3-3.3s3.3,1.5,3.3,3.3C21.1,33.5,19.7,35,17.9,35z M17.9,29.4
			c-1.2,0-2.3,1-2.3,2.3s1,2.3,2.3,2.3s2.3-1,2.3-2.3S19.1,29.4,17.9,29.4z"/>
	</g>
	<g>
		<path d="M32.1,28.3c-1.8,0-3.3-1.5-3.3-3.3c0-1.8,1.5-3.3,3.3-3.3s3.3,1.5,3.3,3.3C35.4,26.8,33.9,28.3,32.1,28.3z M32.1,22.7
			c-1.2,0-2.3,1-2.3,2.3s1,2.3,2.3,2.3s2.3-1,2.3-2.3S33.4,22.7,32.1,22.7z"/>
	</g>
	<g>
		<path d="M22,20.8l5.6,2.6c0.1-0.3,0.3-0.6,0.4-0.9l-5.6-2.6C22.3,20.2,22.2,20.5,22,20.8z"/>
		<path d="M17.9,26.9c0.2,0,0.3,0,0.5,0.1v-3.8c-0.2,0-0.3,0.1-0.5,0.1c-0.2,0-0.3,0-0.5-0.1v3.8C17.5,26.9,17.7,26.9,17.9,26.9z"/>
		<path d="M27.6,26.6L22,29.2c0.2,0.3,0.3,0.6,0.4,0.9l5.6-2.6C27.8,27.2,27.7,26.9,27.6,26.6z"/>
	</g>
</g>
</svg>
