<?xml version="1.0" encoding="utf-8"?>
<!-- Generator: Adobe Illustrator 18.1.0, SVG Export Plug-In . SVG Version: 6.00 Build 0)  -->
<svg version="1.1" id="Layer_1" xmlns="http://www.w3.org/2000/svg" xmlns:xlink="http://www.w3.org/1999/xlink" x="0px" y="0px"
	 viewBox="0 0 50 50" enable-background="new 0 0 50 50" xml:space="preserve">
<g>
	<g>
		<path d="M25,37.3c-1.8,0-3.3-1.5-3.3-3.3c0-1.8,1.5-3.3,3.3-3.3s3.3,1.5,3.3,3.3C28.2,35.8,26.8,37.3,25,37.3z M25,31.7
			c-1.2,0-2.3,1-2.3,2.3s1,2.3,2.3,2.3s2.3-1,2.3-2.3S26.2,31.7,25,31.7z"/>
	</g>
	<g>
		<path d="M37,19.3c-1.8,0-3.3-1.5-3.3-3.3s1.5-3.3,3.3-3.3s3.3,1.5,3.3,3.3S38.8,19.3,37,19.3z M37,13.7c-1.2,0-2.3,1-2.3,2.3
			s1,2.3,2.3,2.3s2.3-1,2.3-2.3S38.2,13.7,37,13.7z"/>
	</g>
	<g>
		<path d="M13,19.3c-1.8,0-3.3-1.5-3.3-3.3s1.5-3.3,3.3-3.3s3.3,1.5,3.3,3.3S14.8,19.3,13,19.3z M13,13.7c-1.2,0-2.3,1-2.3,2.3
			s1,2.3,2.3,2.3s2.3-1,2.3-2.3S14.2,13.7,13,13.7z"/>
	</g>
	<g>
		<path fill-rule="evenodd" clip-rule="evenodd" d="M24.5,30.7v0.8h1v-0.8c-0.2,0-0.3,0-0.5,0C24.8,30.7,24.7,30.7,24.5,30.7z"/>
		<path fill-rule="evenodd" clip-rule="evenodd" d="M32.2,16c0-0.2,0-0.3,0-0.5h-6.8h-1h-6.8c0,0.2,0,0.3,0,0.5c0,0.2,0,0.3,0,0.5
			h6.8v12.7c0.2,0,0.4-0.1,0.5-0.1c0.2,0,0.3,0,0.5,0V16.5h6.8C32.3,16.4,32.2,16.2,32.2,16z"/>
	</g>
</g>
</svg>
